<svg version="1.1" id="Слой_1" xmlns="http://www.w3.org/2000/svg" xmlns:xlink="http://www.w3.org/1999/xlink" x="0px" y="0px"
    viewBox="0 0 2000 1841.9" style="enable-background:new 0 0 2000 1841.9;" xml:space="preserve">
    <g>
        <path d="M1110,681.9c3.2,1,6.6,1.7,9.7,3.1c16.8,7.7,24.6,21.1,24.6,39.4c0,58,0,116,0,174c0,2,0,4,0,6.5c2.2,0,3.8,0,5.5,0
		c21.3,0,42.6,0,63.9,0c7.4,0,10.2,2.7,10.2,10.1c0,14.5,0,28.9,0,43.4c0,7.4-2.7,10.1-10.2,10.1c-21.3,0-42.6,0-63.9,0
		c-1.7,0-3.3,0-5.3,0c0,42.6,0,84.7,0,127.6c2.4,0,4.6,0,6.9,0c18.7,0.2,32.5,13.8,32.5,31.8c0,18-14,31.7-32.6,31.8
		c-65.3,0.1-130.7,0-196,0c-21.2,0-42.3,0-63.5,0c-21,0-34.3-13.3-34.4-34.4c0-50.1,0-100.2,0-150.3c0-2,0-4,0-6.5
		c-8.4,0-16.3,0-24.2,0c-4.7,0-9.3,0-14,0c-6.8-0.1-9.6-2.9-9.6-9.7c0-25.5,0-51,0-76.5c0-2.8,0-5.6,0-9.2c-6.6,0-13.1,0-19.5,0
		c-10.2,0-12.3-2.1-12.3-12.3c0-13.8,0-27.7,0-41.5c0-7.1,2.7-9.8,9.9-9.9c7.1-0.1,14.2,0,21.9,0c0-2.2,0-3.8,0-5.5
		c0-27.8,0-55.7,0-83.5c0-22.4,6-31,26.9-38.4C927.7,681.9,1018.9,681.9,1110,681.9z M1128,968.7c-45,0-89.7,0-135.2,0
		c0,2.5,0.6,5.2-0.1,7.4c-0.9,2.7-2.4,6.2-4.6,7.3c-2.2,1-6.5,0.5-8.4-1.1c-16-12.9-31.7-26-47.4-39.3c-4.3-3.7-4.3-8.9,0-12.5
		c15.7-13.2,31.4-26.4,47.4-39.3c2-1.6,6.2-2.1,8.4-1.1c2.2,1.1,3.6,4.6,4.5,7.3c0.7,2.2,0.1,4.8,0.1,7.3c45.4,0,90.2,0,135.2,0
		c0.1-1.6,0.3-2.9,0.3-4.3c0-58.9,0.1-117.9,0-176.8c0-16-10-25.8-26-25.8c-76,0-152.1,0-228.1,0c-1.5,0-2.9,0.1-5,0.2
		c4.5,7.4,4.4,15,4.4,22.7c0,27.7,0,55.4,0,83c0,1.8,0.1,3.6,0.2,5.3c45.3,0,90.1,0,135.2,0c0-2.5,0-4.6,0-6.8
		c0-3.6,1.1-7.1,4.6-7.8c2.8-0.6,6.8-0.2,8.9,1.5c15.6,12.5,31,25.5,46.3,38.4c5.2,4.4,5.2,9.4,0,13.8
		c-15.3,12.9-30.8,25.7-46.2,38.5c-2.7,2.3-5.7,3.2-9.1,1.5c-3.4-1.6-4.5-4.5-4.6-8c0-2.3,0-4.5,0-6.8c-45.5,0-90.2,0-135.1,0
		c-0.1,1.3-0.3,2.4-0.3,3.4c0,83.2,0,166.4,0,249.6c0,10.4,6.8,17.5,16,17.4c9.3-0.1,15.7-7.2,15.8-17.7c0.1-6.2,0-12.4,0-18.7
		c0-9.4,2.1-11.4,11.6-11.4c68.4,0,136.8,0,205.3,0c1.8,0,3.7,0,5.8,0C1128,1053.4,1128,1011.2,1128,968.7z M1024.8,818.4
		c-2,6.3-6.4,6.9-11.4,6.9c-71.2,0-142.4,0-213.6,0c-1.9,0-3.9,0.2-5.8,0.3c0,10.8,0,21,0,31.6c2.3,0,4.3,0,6.2,0
		c71,0,142.1,0,213.1-0.1c5.2,0,9.5,0.7,11.5,6.8c9.3-7.8,18.1-15.1,27.2-22.7C1043,833.6,1034.2,826.2,1024.8,818.4z M976.9,959.5
		c2.1-5.6,5.9-6.9,10.9-6.9c71.4,0.1,142.7,0.1,214.1,0.1c1.9,0,3.9,0,5.8,0c0-11,0-21.2,0-31.8c-2.1,0-3.9,0-5.7,0
		c-71.1,0-142.1,0-213.2,0.1c-5.3,0-9.9-0.7-11.9-6.9c-9.3,7.8-18.2,15.2-27.2,22.8C959,944.5,967.7,951.8,976.9,959.5z
		 M918.9,1143.7c-0.5,0,0.2,0.1,0.8,0.1c77.3,0,154.5,0,231.8,0c0.6,0,1.2,0,1.9-0.1c6.9-0.6,12.7-5.6,14.3-12.2
		c2.5-10.6-5.3-19.5-17.1-19.6c-74.9,0-149.9,0-224.8,0c-1.4,0-2.7,0.2-3.6,0.2C921.1,1122.8,920,1133,918.9,1143.7z M857.4,809
		c0-2.1,0-3.9,0-5.8c0-24.6,0-49.1,0-73.7c0-5.7,0.2-11.5-0.2-17.2c-0.4-7.5-6.1-13.3-13.6-14.4c-7.1-1-14.7,3.4-17,10.3
		c-0.9,2.6-1.1,5.5-1.1,8.2c-0.1,29.2,0,58.4,0,87.7c0,1.5,0,3,0,4.9C836.3,809,846.6,809,857.4,809z M857.1,952.4
		c0-26.6,0-52.7,0-78.9c-10.7,0-21,0-31.2,0c0,26.5,0,52.5,0,78.9C836.3,952.4,846.5,952.4,857.1,952.4z" />
        <path d="M1096.1,1032.6c0,5.2,0,10.1,0,15.4c-53,0-105.7,0-158.7,0c0-5.2,0-10.1,0-15.4C990.4,1032.6,1043.1,1032.6,1096.1,1032.6z
		" />
        <path d="M937.5,1079.9c0-5.3,0-10.2,0-15.4c52.9,0,105.5,0,158.5,0c0,5.1,0,10.1,0,15.4C1043.2,1079.9,990.6,1079.9,937.5,1079.9z"
        />
        <path d="M905.7,729.9c26.3,0,52.4,0,78.9,0c0,5,0,10,0,15.3c-26.1,0-52.3,0-78.9,0C905.7,740.1,905.7,735.1,905.7,729.9z" />
        <path d="M905.6,777c0-5.1,0-10,0-15.2c26.4,0,52.6,0,79.1,0c0,5,0,9.9,0,15.2C958.5,777,932.3,777,905.6,777z" />
        <path d="M1048.7,1016c0-5.4,0-10.1,0-15.3c15.7,0,31.3,0,47.2,0c0,5,0,10,0,15.3C1080.3,1016,1064.7,1016,1048.7,1016z" />
    </g>
</svg>