<svg version="1.1" id="Слой_1" xmlns="http://www.w3.org/2000/svg" xmlns:xlink="http://www.w3.org/1999/xlink" x="0px" y="0px"
    viewBox="0 0 2000 1841.9" style="enable-background:new 0 0 2000 1841.9;" xml:space="preserve">
    <g>
        <path d="M808,893.9c2-3,5-3.6,8.4-3.6c14.7,0.1,29.4,0,44.2,0c6.6,0,8.2,1.6,8.2,8.2c0,5.1,0,10.2,0,15.4c0,0.2,0.1,0.5,0.2,1.1
		c16.7,0,33.4,0,50.5,0c0-1.3,0-2.5,0-3.7c0-19.7,0-39.5,0.1-59.2c0-2.5-0.7-4.2-2.5-5.9c-4.8-4.6-9.3-9.4-14.2-14.3
		c-8.8,5.4-18,6.8-27.6,3.4c-6.8-2.4-12.1-6.8-15.8-13.1c-7.6-12.7-5-28.7,6.1-38.5c10.9-9.6,27.2-10.1,38.6-1.2
		c10.5,8.1,16.6,24.6,6.6,41.4c5.2,5.2,10.4,10.5,15.8,15.7c0.8,0.7,2.3,0.9,3.4,0.9c7,0.1,14,0,21,0.1c4.4,0,6.8,2.1,6.8,5.7
		c0,3.6-2.4,5.5-6.9,5.5c-6.6,0-13.2,0-19.9,0c0,46.1,0,91.7,0,137.7c45.7,0,91.3,0,137.2,0c0-45.7,0-91.4,0-137.7
		c-1.4,0-2.8,0-4.3,0c-28.6,0-57.1,0-85.7,0c-1.1,0-2.2,0-3.4,0c-3.3-0.2-5.5-2.4-5.6-5.4c-0.1-3.1,2.2-5.7,5.6-5.8
		c5.4-0.2,10.7,0,16.1-0.1c0.8,0,1.7-0.1,2.8-0.1c0-16.9,0-33.6,0-50.8c-5.7,0-11.3,0-16.8,0c-6.1,0-7.8-1.7-7.8-7.8
		c0-15,0.1-30-0.1-45c0-3.4,0.8-6.1,3.6-8.1c18,0,35.9,0,53.9,0c2.8,2,3.6,4.7,3.6,8.1c-0.1,15,0,30-0.1,45c0,6.1-1.7,7.8-7.8,7.8
		c-5.5,0-10.9,0-16.7,0c0,17,0,33.7,0,50.9c1.1,0,2.3,0,3.5,0c19.8,0,39.7,0.1,59.5-0.1c1.8,0,4.1-1,5.4-2.3
		c4.9-4.6,9.6-9.4,14.3-14.1c-8.1-19.3-5.1-33.9,8.7-43c12.1-8,28.4-6.2,38.4,4.2c10.2,10.5,11.6,26.6,3.3,38.6
		c-9.4,13.5-24,16.4-42.7,8c-5,5.1-10.2,10.3-15.3,15.7c-0.7,0.7-1,2-1,3c-0.1,21,0,42,0,63c0,0.4,0.1,0.7,0.2,1.4
		c16.7,0,33.5,0,50.6,0c0-6,0-11.7,0-17.4c0-5.3,1.9-7.2,7.2-7.3c15.5,0,30.9-0.1,46.4,0c5.2,0,7.1,2,7.2,7.4c0,15.5,0,31,0,46.5
		c0,5.1-1.9,7.1-6.9,7.2c-15.6,0.1-31.2,0-46.8,0c-5.2,0-7-1.9-7-7c0-5.7,0-11.5,0-17.5c-17,0-33.6,0-50.8,0c0,1.1,0,2.3,0,3.5
		c0,19.9-0.1,39.7,0.1,59.6c0,1.7,0.9,3.9,2.1,5.2c4.6,5,9.6,9.8,14.3,14.6c18.3-8.5,33.4-5.4,42.7,8.4c8.2,12.2,6.4,29-4.3,39.1
		c-11,10.4-27.4,11.2-39.4,2c-10.6-8-16.7-24.7-6.7-41.4c-5.3-5.3-10.6-10.7-16-16c-0.6-0.6-1.8-0.7-2.7-0.7c-20.8,0-41.7,0-62.5,0
		c-0.5,0-1,0.1-1.7,0.2c0,16.8,0,33.5,0,50.7c5.7,0,11.2,0,16.8,0c6.1,0,7.8,1.7,7.8,7.8c0,15-0.1,30,0.1,45c0,3.4-0.8,6.1-3.6,8.1
		c-18,0-35.9,0-53.9,0c-2.8-2-3.6-4.7-3.6-8.1c0.1-15,0-30,0.1-45c0-6.1,1.7-7.8,7.8-7.8c5.6,0,11.1,0,16.8,0c0-17.2,0-33.9,0-50.7
		c-0.7-0.1-1.2-0.2-1.7-0.2c-20.8,0-41.7,0-62.5,0c-0.9,0-2.1,0.2-2.7,0.7c-5.4,5.3-10.7,10.7-16,16c10,16.8,3.7,33.6-7,41.6
		c-11.9,8.9-28.3,7.9-39.1-2.3c-10.8-10.2-12.6-26.8-4.3-39c9.3-13.8,24.2-16.8,42.7-8.4c4.7-4.8,9.7-9.5,14.3-14.6
		c1.2-1.3,2.1-3.4,2.1-5.2c0.1-19.9,0.1-39.7,0.1-59.6c0-1.2,0-2.4,0-3.5c-17.2,0-33.8,0-50.8,0c0,5.8,0,11.3,0,16.7
		c0,6.1-1.6,7.8-7.8,7.8c-15,0-29.9-0.1-44.9,0.1c-3.4,0-6.1-0.8-8.1-3.6C808,929.9,808,911.9,808,893.9z M1018.6,778.4
		c0-13,0-25.5,0-38c-12.8,0-25.4,0-37.9,0c0,12.8,0,25.3,0,38C993.4,778.4,1005.9,778.4,1018.6,778.4z M1018.7,1063.5
		c-12.9,0-25.5,0-38,0c0,12.8,0,25.4,0,37.9c12.8,0,25.3,0,38,0C1018.7,1088.7,1018.7,1076.3,1018.7,1063.5z M819.5,901.8
		c0,13,0,25.5,0,38.1c12.8,0,25.3,0,37.8,0c0-12.9,0-25.4,0-38.1C844.5,901.8,832.1,901.8,819.5,901.8z M1142,901.8
		c0,13,0,25.5,0,38.1c12.8,0,25.3,0,37.8,0c0-12.9,0-25.4,0-38.1C1167.1,901.8,1154.7,901.8,1142,901.8z M904.7,806.7
		c0-10.7-8.5-19.3-19.2-19.3c-10.6,0-19.2,8.8-19.1,19.4c0.1,10.5,8.5,18.9,19.1,19C896.2,825.9,904.7,817.5,904.7,806.7z
		 M1113.6,825.8c10.7,0,19.3-8.6,19.3-19.3c-0.1-10.5-8.7-19.1-19.1-19.1c-10.7,0-19.2,8.6-19.2,19.3
		C1094.6,817.4,1102.9,825.8,1113.6,825.8z M904.7,1035.5c0.2-10.7-8-19.3-18.5-19.5c-10.8-0.2-19.5,8.1-19.7,18.8
		c-0.2,10.6,8.4,19.5,19,19.6C896,1054.4,904.6,1046,904.7,1035.5z M1094.5,1035.2c0,10.7,8.6,19.3,19.2,19.2
		c10.5-0.1,19.2-8.9,19.1-19.5c-0.1-10.5-8.6-18.9-19.1-18.9C1102.9,1015.9,1094.5,1024.4,1094.5,1035.2z" />
        <path d="M957.9,921c4.7,4.7,9.1,8.9,13.4,13.2c3.4,3.4,3.8,6.5,1.3,9.1c-2.5,2.6-5.8,2.2-9.1-1c-5.6-5.5-11.1-11.1-16.6-16.7
		c-3.4-3.4-3.4-6.1,0.1-9.6c5.5-5.6,11.1-11.2,16.6-16.7c3.1-3.1,6.4-3.4,8.8-1c2.6,2.5,2.2,5.8-1,9.1
		C967.1,911.8,962.7,916.2,957.9,921z" />
        <path d="M1041.4,920.8c-5.1-5-9.9-9.7-14.6-14.5c-2.1-2.1-2.8-4.9-0.7-7c1.4-1.4,4-2,6.1-2.3c1-0.1,2.3,1.2,3.3,2.2
		c5.6,5.5,11.2,11.1,16.7,16.7c3.6,3.6,3.6,6.3,0,9.9c-5.5,5.6-11.1,11.2-16.7,16.7c-3.1,3.1-6.4,3.3-8.8,0.9
		c-2.4-2.5-2.1-5.7,0.9-8.8C1032.1,930.1,1036.6,925.6,1041.4,920.8z" />
        <path d="M988.4,945c-5,0-7.7-3.7-6.5-7.3c0.3-0.8,0.8-1.6,1.2-2.3c7.8-11.7,15.6-23.5,23.4-35.2c0.2-0.3,0.4-0.6,0.6-0.9
		c2.2-2.8,5.3-3.5,7.8-1.8c2.7,1.8,3.4,4.9,1.5,7.9c-8.1,12.3-16.2,24.5-24.5,36.7C991.1,943.7,989.1,944.5,988.4,945z" />
        <path d="M999.6,764.9c-6,0-8.8-1.8-8.7-5.7c0.1-3.8,2.8-5.6,8.9-5.6c0.6,0,1.2,0,1.9,0c4,0.1,6.6,2.2,6.7,5.5
		c0.1,3.5-2.5,5.6-6.8,5.7C1000.9,765,1000.3,764.9,999.6,764.9z" />
        <path d="M999.6,1076.8c6,0,8.8,1.8,8.7,5.7c-0.1,3.8-2.9,5.6-8.9,5.6c-0.5,0-1,0-1.5,0c-4.3-0.1-7-2.2-7-5.6
		c-0.1-3.5,2.5-5.6,6.9-5.7C998.4,1076.8,999,1076.8,999.6,1076.8z" />
        <path d="M832.7,920.6c0-0.7,0-1.5,0-2.2c0.1-3.8,2.5-6.5,5.8-6.4c3.1,0,5.4,2.5,5.6,6.2c0.1,2,0.1,4,0,6c-0.2,3.3-2.7,5.7-5.7,5.7
		c-3-0.1-5.4-2.5-5.6-5.8C832.7,922.9,832.7,921.7,832.7,920.6z" />
        <path d="M1166.5,920.9c0,1.4,0.2,2.8,0,4.1c-0.6,3.1-2.7,4.9-5.7,4.8c-3-0.1-5.2-1.8-5.4-5.1c-0.2-2.3-0.2-4.7,0-7.1
		c0.2-3.2,2.5-5.5,5.4-5.6c3-0.1,5.6,2.3,5.9,5.5C1166.6,918.6,1166.5,919.7,1166.5,920.9C1166.5,920.9,1166.5,920.9,1166.5,920.9z"
        />
    </g>
</svg>