<svg version="1.1" id="Слой_1" xmlns="http://www.w3.org/2000/svg" xmlns:xlink="http://www.w3.org/1999/xlink" x="0px" y="0px"
    viewBox="0 0 2000 1841.9" style="enable-background:new 0 0 2000 1841.9;" xml:space="preserve">
    <g>
        <path d="M808,1037.1c1.4-1.6,2.7-3.3,4.2-4.7c25.6-25.7,51.3-51.4,77-77.1c1-1,2.1-1.8,3.6-3c-1.7-1-2.7-1.7-3.7-2.3
		c-6.5-3.5-13-6.9-19.5-10.4c-12.6-6.9-17-20.2-10.8-33.2c3.3-7,6.7-14,10.2-20.8c2.3-4.5,2.3-8.8,0-13.2
		c-3.5-6.9-6.9-13.9-10.2-20.9c-6.2-13-1.9-26.3,10.8-33.2c6.7-3.6,13.4-7.2,20.1-10.7c4.7-2.4,7.3-6.1,8.1-11.3
		c1.2-8,2.6-16,4.3-23.9c2.8-12.8,14.3-20.8,27.2-19.2c7.7,1,15.3,2.1,22.9,3.3c5.2,0.8,9.6-0.3,13.3-4.1c3.9-4,8.2-7.7,12.1-11.8
		c5-5.2,10.4-9.6,17.4-11.6c3,0,6,0,9,0c7.2,2,12.6,6.6,17.7,11.9c3.8,4,8,7.6,11.8,11.5c3.6,3.7,7.9,5,12.9,4.2
		c7.6-1.2,15.3-2.3,22.9-3.4c13-1.8,24.8,6.2,27.5,19.1c1.7,8,3,16.2,4.4,24.3c0.8,4.8,3.1,8.3,7.5,10.5c6.6,3.4,13.2,7,19.8,10.5
		c13.9,7.4,18.1,20.6,11.2,34.9c-3.2,6.6-6.4,13.3-9.7,19.8c-2.3,4.5-2.2,8.8,0,13.2c3.4,6.8,6.7,13.6,10,20.5
		c6.3,13.2,2.1,26.5-10.7,33.6c-7.4,4.1-14.9,8-23.2,13.3c1.4,0.9,2.9,1.5,4.1,2.7c25.8,25.8,51.6,51.6,77.3,77.4
		c1.4,1.4,2.8,3.3,3.4,5.2c0.9,3.3-1.6,6-6.1,7c-15.3,3.5-30.6,7.1-45.9,10.5c-2.9,0.7-4.2,1.9-4.9,4.9
		c-3.3,15.2-6.8,30.4-10.5,45.6c-0.6,2.4-2.8,4.4-4.3,6.6c-1.2,0-2.5,0-3.7,0c-1.6-1.4-3.2-2.7-4.7-4.2
		c-29.2-29.2-58.4-58.4-87.5-87.7c-0.9-0.9-1.9-1.8-3-2.8c-5.8,6.5-12.3,10.7-21,10.7c-8.6,0-15-4.6-20.7-10.6
		c-1.2,1.2-2.2,2.1-3.2,3.1c-29,29-58,58.1-87,87.1c-1.6,1.6-3.3,3-5,4.4c-1.2,0-2.5,0-3.7,0c-2.7-1.7-3.9-4.2-4.6-7.3
		c-3.4-15.3-7-30.6-10.5-45.9c-0.5-2.2-1.5-3.3-3.8-3.8c-15.3-3.4-30.5-7-45.8-10.4c-3.1-0.7-5.6-1.9-7.2-4.6
		C808,1039.6,808,1038.4,808,1037.1z M1072,992.9c7.2,0.2,12.4-4.1,13.6-10.9c1.3-7.4,2.7-14.7,3.8-22.1c1.4-9.2,6.1-15.9,14.4-20.1
		c6.7-3.4,13.2-7,19.8-10.5c7.4-4,9.4-10.4,5.8-18c-3-6.3-5.9-12.7-9.2-18.8c-4.9-9.1-4.8-18,0.1-27.1c3.3-6.1,6.3-12.5,9.3-18.8
		c3.5-7.4,1.5-13.8-5.7-17.7c-7-3.8-14.1-7.5-21.1-11.3c-6.9-3.7-11.3-9.4-12.7-17.1c-1.5-8-2.9-16-4.3-24
		c-1.5-8.3-7.3-12.5-15.6-11.2c-6,0.9-12.2,1.5-18.1,2.7c-12,2.6-21.8-0.8-29.9-9.9c-4.1-4.6-8.7-8.6-13.1-12.8
		c-6.1-5.8-12.8-5.7-18.9,0.1c-5.7,5.4-11.3,11-17,16.4c-6.2,5.9-13.6,8-22,6.7c-7.6-1.2-15.3-2.3-22.9-3.3
		c-7.5-1-13.2,3.3-14.6,10.7c-1.3,7.4-2.7,14.7-3.8,22.1c-1.4,9.2-6.1,15.9-14.4,20.2c-6.7,3.4-13.2,7-19.8,10.5
		c-7.4,4-9.5,10.4-5.9,18c3.3,6.9,6.6,13.7,10,20.5c4,7.9,3.9,15.8,0,23.7c-3.3,6.7-6.6,13.4-9.9,20.2c-3.8,7.9-1.8,14.1,5.8,18.2
		c6.6,3.6,13.2,7.1,19.8,10.5c8.1,4.2,12.7,11,14.2,19.9c1.3,7.4,2.5,14.8,3.8,22.1c1.3,7.6,7.1,11.9,14.8,10.9
		c5.9-0.8,11.9-1.4,17.7-2.6c12.3-2.7,22.6,0.1,31,9.8c3.9,4.5,8.5,8.4,12.9,12.5c6.3,6,12.8,6.1,19.1,0.1
		c5.5-5.2,11-10.6,16.4-15.9c6.5-6.3,14.1-8.6,23-7.1C1056.5,990.8,1064.5,991.8,1072,992.9z M1114.1,1094.1
		c0.2-0.7,0.5-1.6,0.8-2.6c3-13.1,6.1-26.2,9-39.4c0.8-3.7,2.7-5.9,6.5-6.7c8-1.7,16-3.6,24-5.4c6.1-1.4,12.2-2.9,17.7-4.2
		c-23.8-23.8-47.5-47.6-71.3-71.4c-1,6-2.2,12.3-3.2,18.6c-2.5,15.2-14.4,23.8-29.7,21.4c-6.3-1-12.7-1.3-18.8-2.7
		c-8.8-2.1-14.6,1.6-19.4,8C1057.9,1037.8,1086,1065.9,1114.1,1094.1z M826.6,1035.6c0.6,0.2,1.2,0.5,1.8,0.6
		c13.3,3.1,26.7,6.2,40,9.2c3.9,0.9,6.1,2.8,6.9,6.7c2.9,13.2,6,26.3,9,39.4c0.2,1,0.6,1.9,0.7,2.1c28.1-28.1,56.1-56.2,84.2-84.4
		c-4.1-4.5-8.5-9.2-16.1-8c-7.1,1.2-14.3,2-21.5,3.1c-16.2,2.4-27.6-5.9-30.2-21.9c-1-6.2-2.2-12.3-3.3-18.7
		C874.1,987.9,850.5,1011.6,826.6,1035.6z" />
        <path d="M998.2,788.8c19.3,0.2,35.5,5,50.4,14.6c2.7,1.7,4.2,3.9,3.5,7.2c-0.9,4.2-5.4,5.8-9.5,3.2c-8.1-5.1-16.7-8.9-26-11.1
		c-44.7-10.4-89.9,22-94.2,67.7c-4,42.4,23.9,78.6,66,85.5c42.3,6.9,84-25.1,88.4-67.8c2.3-22.3-3.5-42-17.6-59.3
		c-2.9-3.6-2.9-7.3-0.1-9.6c2.9-2.3,6.5-1.6,9.3,2.1c21.5,27.3,27.2,57.7,14.7,90.1c-12.5,32.3-36.9,51.4-71.1,56.6
		c-50.2,7.6-96.1-28.6-101.7-79.3c-5.5-49.1,30.1-93.7,79-99.1C992.9,789.1,996.4,789,998.2,788.8z" />
        <path d="M987.6,900c7.9-8.3,15.5-16.3,23.1-24.4c7.6-8.1,15.2-16.2,22.9-24.2c3.5-3.7,8.3-3.3,10.3,0.6c1.6,3.2,0.2,5.7-2,8.1
		c-11.9,12.5-23.7,25-35.6,37.5c-4.6,4.8-9.1,9.6-13.7,14.4c-3.9,4-7,4-10.7-0.2c-8.4-9.6-16.8-19.1-25.1-28.8
		c-2.9-3.3-2.9-6.9-0.3-9.3c2.8-2.5,6.1-2,9.1,1.3C972.9,883.2,980,891.4,987.6,900z" />
    </g>
</svg>