<svg version="1.1" id="Слой_1" xmlns="http://www.w3.org/2000/svg" xmlns:xlink="http://www.w3.org/1999/xlink" x="0px" y="0px"
    viewBox="0 0 2000 1841.9" style="enable-background:new 0 0 2000 1841.9;" xml:space="preserve">
    <g>
        <path d="M985,1125.5c-8.5-2.9-12-9-11.3-17.8c0.2-3.1,0-6.3,0-10c-5.9,0-11.3,0-16.7,0c-11.7-0.1-17.7-6-17.7-17.7
		c0-5.1-0.6-10.4,2.5-15.1c0.4-0.6-0.4-2.1-0.7-3.2c-2.7-7.8-3.1-15.6,0.3-23.2c1-2.2,3-4.2,5.1-5.4c2.6-1.5,3.4-3.1,3.3-5.9
		c-0.2-6.4-0.2-12.8,0-19.2c0.3-11.9-4.6-20.8-14.7-27.3c-20.5-13.1-36-30.8-45.2-53.4c-17.7-43.5-12.4-84.5,16-121.8
		c19.2-25.2,45.3-39.7,76.5-44.8c0.8-0.1,1.6-0.2,2.4-0.3c4-0.3,6.6,1.5,7.2,4.7c0.6,3.2-1.6,6.1-5.5,7c-5.3,1.2-10.8,1.9-15.9,3.5
		c-34.8,10.4-59.3,32.5-71.7,66.5c-18,49.2-0.8,99.6,42.9,128.6c13.6,9,20.2,21.3,20,37.5c-0.1,7.2,0,14.3,0,21.8
		c25.6,0,50.9,0,76.8,0c0-4.7-0.2-9.4,0-14.2c0.4-7.3,0.4-14.7,1.9-21.7c2-9,7.5-16.1,15.2-21.3c12.8-8.6,24.3-18.5,33.2-31.3
		c9.6-13.8,15.6-28.9,18.2-45.4c0.1-0.8,0.2-1.6,0.4-2.4c1-4.1,3.6-6.1,7-5.5c3.4,0.6,5.2,3.4,4.7,7.6c-1.8,13.5-5.8,26.5-12.1,38.6
		c-9.5,18.4-22.7,33.7-40.3,44.9c-11.8,7.6-17.3,17.8-16.4,31.8c0.4,5.7-0.1,11.4,0.2,17.2c0.1,1.4,1.1,3.2,2.3,3.9
		c5.3,3.3,8.2,7.9,8.1,14.2c-0.1,5.7,1,11.5-2.5,16.7c-0.3,0.5,0,1.7,0.4,2.5c3.4,6.8,2.8,14.1,1.3,21.1
		c-1.4,6.4-7.1,10.5-13.7,10.9c-3.3,0.2-6.6,0.1-10,0.1c-3.2,0-6.3,0-9.9,0c0,3.8-0.2,7.1,0,10.3c0.6,8.7-3,14.6-11.3,17.4
		C1005.3,1125.5,995.1,1125.5,985,1125.5z M1000.1,1042.4c-14.1,0-28.2,0-42.2,0c-6,0-6.5,0.5-6.5,6.7c0,0.7,0,1.3,0,2
		c0,6.5,0.6,7.1,7,7.1c27,0,53.9,0,80.9,0c10,0,10,0,9.9-10.2c-0.1-4.8-0.8-5.6-5.6-5.6C1029,1042.4,1014.5,1042.4,1000.1,1042.4z
		 M999.9,1085.7c14.6,0,29.3-0.1,43.9,0c3.7,0,5.5-1.4,5.3-5.2c-0.1-1.2,0-2.4,0-3.6c0-6.5-0.4-6.9-6.7-6.9c-27.3,0-54.5,0-81.8,0
		c-9.3,0-9.3,0-9.3,9.1c0,6,0.5,6.5,6.3,6.5C971.7,1085.8,985.8,1085.7,999.9,1085.7z M1014.7,1098c-10,0-19.3,0-28.9,0
		c0,4.4-0.2,8.5,0.2,12.5c0.1,1.1,2,2.8,3.2,2.9c7.4,0.3,14.8,0.3,22.2,0c1.1,0,3.1-1.8,3.2-2.9
		C1014.9,1106.5,1014.7,1102.4,1014.7,1098z" />
        <path d="M1019.4,819.3c9.9,4.7,9.9,4.7,17.3-2.7c1.9-1.9,3.7-3.9,5.7-5.6c3.9-3.3,8.1-3.5,11.9,0c5.3,4.9,10.3,10,15.2,15.2
		c3.5,3.8,3.2,8.2-0.5,12.1c-3.4,3.6-6.9,7.1-10.4,10.4c-1.5,1.4-1.4,2.5-0.9,4.5c1.6,6.5,5.2,9.1,11.9,7.9c2.8-0.5,5.8-0.2,8.8-0.1
		c5.7,0.2,8.9,3.3,9.1,8.9c0.2,6.6,0.1,13.3,0,20c-0.1,6-3.4,9.2-9.5,9.4c-4.7,0.1-9.3,0.1-14,0c-2.2-0.1-3.3,0.6-4.1,2.7
		c-2.9,7.6-3,7.6,2.9,13.5c2.2,2.2,4.4,4.2,6.5,6.5c3.6,4.1,3.7,8.5,0,12.5c-4.6,4.9-9.5,9.7-14.4,14.4c-4.2,4-8.8,3.8-13.1-0.3
		c-3.5-3.3-6.7-6.9-10.3-10c-1-0.9-3.1-1.3-4.3-0.8c-7.8,3.1-7.8,3.2-7.8,11.7c0,2.9,0.1,5.9,0,8.8c-0.3,5.6-3.5,8.9-9.1,9
		c-6.6,0.1-13.3,0.1-20,0c-5.8-0.1-9.1-3.4-9.2-9.3c-0.1-4.7-0.1-9.3,0-14c0.1-2.3-0.7-3.2-2.8-4.5c-5.7-3.4-9.9-2.3-13.6,3
		c-1.7,2.4-4,4.3-6.2,6.2c-4.2,3.8-8.7,4-12.8,0.2c-4.9-4.6-9.8-9.4-14.4-14.4c-3.8-4.1-3.7-8.6,0.1-12.8c3.3-3.6,6.9-7.1,10.4-10.4
		c1.5-1.4,1.3-2.6,0.8-4.5c-1.6-6.3-5.1-8.9-11.6-7.6c-2.7,0.5-5.6,0.2-8.4,0.1c-6.4-0.2-9.6-3.4-9.7-9.7c-0.1-6.4-0.1-12.8,0-19.2
		c0.1-6.3,3.3-9.4,9.8-9.5c4.7-0.1,9.3-0.1,14,0c2,0.1,3-0.6,3.8-2.6c3-7.9,3.1-7.9-2.9-13.8c-2.1-2.1-4.2-4.1-6.2-6.2
		c-3.9-4.2-4-8.6-0.1-12.8c4.7-4.9,9.5-9.7,14.4-14.4c4.1-3.9,8.5-3.8,12.8,0.1c3.5,3.3,6.9,6.7,10.2,10.2c1.5,1.5,2.6,1.7,4.8,1.1
		c6.5-1.7,8.8-5.5,7.7-12c-0.5-2.8-0.2-5.8,0-8.8c0.2-5.3,3.1-8.7,8.3-8.9c7.2-0.3,14.4-0.3,21.5,0c5.4,0.2,8.3,3.6,8.4,9.2
		C1019.5,808,1019.4,813.7,1019.4,819.3z M1007.4,955.3c0-5.7,0-11.1,0-16.6c0-5.8,1-6.9,6.5-8.9c4-1.4,7.9-3.1,11.7-4.9
		c5.3-2.5,6.7-2.3,10.9,1.8c3.9,3.9,7.8,7.8,11.3,11.3c3.6-3.6,6.8-6.7,10.3-10.1c-3.9-3.9-7.9-8-12-11.9c-3-2.9-3.5-5.8-1.6-9.7
		c2.1-4.3,3.9-8.7,5.5-13.2c1.4-4.2,3.9-6,8.3-5.8c5.5,0.2,11.1,0.1,16.9,0.1c0-5,0-9.5,0-14.4c-6,0-11.7,0-17.4,0
		c-4,0-6.4-1.7-7.7-5.6c-1.6-4.6-3.5-9.2-5.6-13.6c-1.9-3.8-1.3-6.8,1.7-9.6c4.2-3.9,8.2-7.9,12.3-11.9c-3.6-3.6-6.8-6.9-10.4-10.5
		c-4,4.1-8.1,8.1-12,12.3c-3,3.2-6.1,3.6-10,1.5c-4.1-2.1-8.4-3.9-12.8-5.3c-4.2-1.4-6.1-3.8-5.9-8.2c0.2-5.7,0-11.4,0-17.1
		c-5,0-9.5,0-14.4,0c0,6-0.1,11.8,0,17.7c0.1,3.9-1.6,6.1-5.3,7.4c-4.6,1.6-9.2,3.4-13.6,5.6c-4,2-7,1.5-10-1.7
		c-3.9-4.1-8-8.1-11.7-11.8c-3.7,3.5-7,6.6-10.7,10.1c4.3,4.2,8.5,8.3,12.7,12.3c2.8,2.7,3.2,5.5,1.5,9c-1.9,3.8-3.7,7.7-5.1,11.7
		c-2.5,7.1-3.1,7.7-10.9,7.7c-5,0-10,0-14.8,0c0,5.1,0,9.6,0,14.4c6.1,0,12,0.1,17.8,0c3.7-0.1,5.8,1.7,7.1,5.1
		c1.7,4.6,3.4,9.2,5.6,13.6c2,3.9,1.6,7-1.6,10c-4.1,3.9-8.1,8-11.9,11.6c3.5,3.7,6.6,7,10,10.6c4-4.1,8-8,11.8-12.1
		c3-3.2,6-3.7,10-1.8c4.3,2.1,8.7,3.9,13.2,5.4c3.9,1.4,5.8,3.7,5.7,8c-0.2,5.7,0,11.4,0,17.3
		C997.9,955.3,1002.3,955.3,1007.4,955.3z" />
        <path d="M1015.7,760.5c13.3,1.6,26.7,5.5,39.1,12.1c33.4,17.7,54.5,45,63,81.9c0.8,3.4,1.3,6.8,1.7,10.2c0.5,3.9-1.5,6.9-4.9,7.4
		c-3.1,0.5-5.8-1.6-6.7-5.3c-1.8-7.3-2.7-15-5.3-22c-14.7-40.6-43.8-64.5-86.2-72.1c-1-0.2-2.1-0.3-3.1-0.6c-3.5-1-5.5-3.7-4.9-6.7
		C1009.1,761.9,1011.4,760.2,1015.7,760.5z" />
        <path d="M994.2,732.4c0-3-0.1-6.1,0-9.1c0.2-4,2.7-6.6,6-6.5c3.2,0.1,5.7,2.4,5.8,6.3c0.2,6.4,0.2,12.7,0,19.1
		c-0.1,3.8-2.6,6.3-5.8,6.3c-3.3,0.1-5.8-2.5-6-6.5C994.1,738.8,994.2,735.6,994.2,732.4z" />
        <path d="M852.5,886.1c-3.3,0-6.6,0.1-9.9,0c-3.5-0.1-5.5-2.2-5.7-5.4c-0.2-3.3,1.6-5.9,5-6.1c7.3-0.3,14.5-0.3,21.8,0
		c3.2,0.1,4.9,2.6,4.8,5.8c-0.1,3.3-2.1,5.4-5.5,5.6C859.4,886.2,855.9,886.1,852.5,886.1C852.5,886.1,852.5,886.1,852.5,886.1z" />
        <path d="M1147.9,886.1c-3.3,0-6.6,0.1-9.9,0c-3.5-0.2-6-2.5-5.9-5.7c0-3.4,1.9-5.8,5.2-5.9c7-0.3,14-0.3,21,0
		c3.5,0.1,5.8,3.2,5.4,6.2c-0.5,3.5-2.6,5.4-6.2,5.5c-0.3,0-0.5,0-0.8,0C1153.7,886.1,1150.8,886.1,1147.9,886.1
		C1147.9,886.1,1147.9,886.1,1147.9,886.1z" />
        <path d="M909.2,783.5c-1.2,1.4-2.1,3.7-3.7,4.4c-1.6,0.7-4.7,0.7-5.8-0.3c-5.5-4.9-10.7-10.2-15.7-15.7c-2.2-2.4-1.3-5.3,1-7.5
		c2.2-2,5.1-2.3,7.2-0.3c5.2,4.9,10.2,10,15.2,15.1C908.2,780.1,908.4,781.6,909.2,783.5z" />
        <path d="M1118.4,768.4c-1.4,2.3-2.2,4.1-3.4,5.5c-4,4.2-8.2,8.3-12.3,12.4c-3.1,3-6.7,3.2-9.2,0.8c-2.5-2.5-2.3-6.1,0.7-9.1
		c4.3-4.5,8.6-9,13.3-13.1c1.5-1.3,4.5-1.8,6.4-1.2C1115.6,764.1,1116.8,766.6,1118.4,768.4z" />
        <path d="M909.4,977.3c-1.2,2.1-1.8,3.8-2.9,5c-4.2,4.4-8.5,8.7-12.9,13c-3.2,3-6.6,3.1-9.1,0.4c-2.4-2.6-2.2-5.8,0.7-8.8
		c4.3-4.5,8.6-9.1,13.3-13.1c1.6-1.3,4.7-1.8,6.8-1.2C907,973,908,975.5,909.4,977.3z" />
        <path d="M1112,998.3c-2.2-1.3-4.1-2.1-5.5-3.4c-4.2-4-8.3-8.2-12.4-12.3c-3-3.1-3.3-6.7-0.8-9.2c2.6-2.6,5.9-2.5,9.1,0.6
		c4.5,4.3,9,8.6,13.1,13.3c1.3,1.5,1.8,4.5,1.2,6.4C1116.3,995.6,1113.8,996.7,1112,998.3z" />
        <path d="M1000.2,848.3c17.6,0,32,14.4,32,32c0,17.6-14.5,32.1-32,32c-17.5,0-32-14.5-32-32.1C968.2,862.6,982.6,848.2,1000.2,848.3
		z M1000.2,860.2c-11.1,0-20,8.9-20,20c0,11,9,20.1,20,20.1c11,0,20-9,20-20.1C1020.2,869.2,1011.3,860.2,1000.2,860.2z" />
    </g>
</svg>